 <svg  version="1.0" xmlns="http://www.w3.org/2000/svg"  width="259.000000pt" height="261.000000pt" viewBox="0 0 259.000000 261.000000"  preserveAspectRatio="xMidYMid meet">  <g transform="translate(0.000000,261.000000) scale(0.050000,-0.050000)" fill="#e86d4d" stroke="none"> <path d="M727 5079 c-350 -89 -579 -313 -656 -640 -46 -194 -46 -3512 0 -3690 86 -336 299 -555 623 -639 140 -37 3549 -45 3704 -9 305 71 545 300 642 615 54 173 63 3508 10 3710 -87 336 -292 550 -618 644 -188 55 -3495 63 -3705 9z m3724 -302 c135 -72 254 -206 307 -346 43 -115 43 -115 37 -1868 l-5 -1753 -56 -114 c-65 -133 -160 -222 -313 -294 l-111 -52 -1750 0 -1751 0 -133 65 c-152 75 -240 166 -314 324 l-52 111 -6 1675 c-5 1168 0 1708 15 1782 51 246 227 442 461 515 28 8 842 14 1810 12 l1760 -4 101 -53z"/> <path d="M2365 4516 l-145 -84 0 -195 0 -195 95 -54 c193 -109 176 -80 165 -294 l-10 -193 -250 -143 -249 -142 -187 197 c-103 108 -225 236 -271 283 -61 63 -76 90 -57 101 19 12 24 68 20 205 l-6 188 -165 86 -164 85 -156 -88 -155 -88 -6 -201 -5 -201 165 -93 166 -94 84 44 c104 55 71 76 370 -230 l255 -261 -65 -51 c-63 -51 -64 -56 -74 -249 l-10 -197 -240 1 -240 2 -10 67 c-9 58 -28 77 -160 152 -182 103 -177 103 -350 -1 l-140 -85 0 -198 0 -198 163 -96 163 -96 162 92 c153 87 162 96 162 160 l0 68 250 0 250 0 0 -183 c0 -181 0 -183 67 -246 l68 -63 -266 -275 -265 -274 -91 44 -91 44 -106 -57 c-227 -121 -218 -108 -212 -324 l6 -191 159 -91 158 -92 167 88 166 87 0 196 c0 128 -8 197 -22 197 -39 0 -11 34 259 309 l266 273 224 -130 c122 -72 234 -138 247 -146 15 -10 26 -86 29 -206 l5 -189 -134 -77 -134 -77 0 -204 c0 -191 3 -204 45 -224 25 -11 100 -51 166 -87 l122 -67 164 95 164 94 -5 201 -6 202 -125 68 -125 69 0 197 0 198 65 33 c36 18 147 82 247 142 l183 108 127 -136 c71 -74 190 -200 266 -280 112 -118 133 -150 114 -174 -15 -18 -22 -90 -18 -204 l6 -177 150 -84 c187 -105 179 -105 365 3 l155 91 0 189 0 189 -80 51 c-44 28 -121 70 -171 95 l-91 44 -87 -46 -87 -46 -168 176 c-323 339 -368 392 -337 403 90 31 121 105 121 287 l0 177 250 0 250 0 0 -67 c0 -64 10 -73 165 -161 l165 -94 80 45 c44 24 119 70 166 102 l85 58 -5 193 -6 192 -150 86 c-184 104 -166 104 -343 -1 -125 -73 -148 -96 -157 -150 l-10 -64 -245 -5 -245 -4 0 188 c0 187 0 187 -67 251 l-68 63 259 268 259 267 90 -44 91 -44 168 91 168 92 0 195 0 196 -145 82 c-201 115 -187 114 -365 9 l-160 -96 -6 -159 c-4 -115 3 -170 24 -199 28 -39 -455 -580 -518 -580 -11 0 -126 62 -255 137 l-235 137 0 196 0 197 130 72 130 73 0 194 0 194 -150 85 c-183 104 -186 104 -365 1z m268 -127 c133 -77 132 -235 -1 -308 l-87 -48 -93 55 c-135 79 -138 214 -7 296 105 66 86 65 188 5z m-1380 -260 c130 -76 125 -225 -9 -304 l-88 -51 -88 43 c-54 26 -88 56 -88 78 0 19 -6 67 -12 107 -12 68 -7 74 75 124 108 65 105 65 210 3z m2782 6 c162 -86 86 -356 -100 -355 -172 1 -238 260 -90 349 103 61 87 61 190 6z m-1165 -917 c436 -248 390 -174 390 -630 0 -378 -1 -387 -45 -418 -57 -40 -615 -371 -648 -384 -26 -10 -608 315 -682 381 -44 39 -45 51 -45 423 0 436 -8 416 190 517 55 28 190 105 300 171 110 66 205 120 210 121 6 1 155 -81 330 -181z m1506 -626 l6 -109 -85 -50 -85 -51 -96 54 c-144 81 -144 214 -2 303 l94 58 81 -48 c77 -46 81 -53 87 -157z m-3383 137 c133 -78 131 -213 -5 -295 l-92 -55 -88 51 c-87 51 -88 53 -88 159 0 171 118 231 273 140z m343 -1531 c2 -121 -143 -244 -226 -190 -22 14 -60 38 -85 54 -88 54 -65 222 40 284 l85 51 92 -50 c89 -48 91 -52 94 -149z m2691 150 c138 -76 140 -229 5 -311 l-87 -52 -92 51 c-165 90 -118 301 79 363 2 1 45 -22 95 -51z m-1379 -256 c123 -72 115 -239 -15 -308 l-85 -45 -84 45 c-69 38 -84 56 -84 106 0 33 -6 79 -12 102 -9 34 6 53 75 94 107 65 105 65 205 6z"/> <path d="M2280 3108 c-331 -187 -320 -168 -320 -528 l0 -298 68 -55 c37 -29 112 -77 165 -106 53 -28 148 -81 209 -116 144 -83 157 -82 327 18 452 268 411 212 411 561 -1 342 6 331 -309 509 -310 175 -267 174 -551 15z m512 -133 l218 -126 6 -254 5 -254 -75 -47 c-105 -67 -380 -219 -397 -220 -7 -1 -116 56 -242 127 l-228 128 5 260 6 260 210 124 c259 153 230 153 492 2z"/> <path d="M2398 2782 c-71 -72 -85 -278 -23 -355 115 -141 317 -103 364 68 70 253 -171 456 -341 287z m220 -73 c23 -23 25 -212 2 -239 -36 -43 -134 -38 -159 9 -78 146 51 335 157 230z"/> </g> </svg> 