<svg width="72" height="74" viewBox="0 0 72 74" fill="none" xmlns="http://www.w3.org/2000/svg">
<path d="M35.34 24.776L24.79 30.866V43.046L35.34 49.136L45.88 43.046V30.866L35.34 24.776Z" fill="#163357"/>
<path d="M57.5698 24.116H69.6998L63.6398 13.616L57.5698 24.116Z" fill="#FFBC00"/>
<path d="M57.5698 49.786L63.6398 60.296L69.6998 49.786H57.5698Z" fill="#FFBC00"/>
<path d="M29.27 73.136H41.4L35.34 62.626L29.27 73.136Z" fill="#FFBC00"/>
<path d="M0.970215 49.786L7.04021 60.296L13.1102 49.786H0.970215Z" fill="#FFBC00"/>
<path d="M0.970215 24.116H13.1102L7.04021 13.616L0.970215 24.116Z" fill="#FFBC00"/>
<path d="M29.27 0.776001L35.34 11.286L41.4 0.776001H29.27Z" fill="#FFBC00"/>
<path d="M46.9145 2.82455L39.8745 15.0182L52.0681 22.0582L59.1081 9.86455L46.9145 2.82455Z" fill="#F43BA6"/>
<path d="M71.08 29.776H57V43.856H71.08V29.776Z" fill="#F43BA6"/>
<path d="M52.0662 51.8346L39.8726 58.8746L46.9126 71.0683L59.1062 64.0283L52.0662 51.8346Z" fill="#F43BA6"/>
<path d="M18.6084 51.8381L11.5684 64.0317L23.762 71.0717L30.802 58.8781L18.6084 51.8381Z" fill="#F43BA6"/>
<path d="M14.08 29.916H0V43.996H14.08V29.916Z" fill="#F43BA6"/>
<path d="M23.763 2.83073L11.5693 9.87073L18.6093 22.0644L30.803 15.0244L23.763 2.83073Z" fill="#F43BA6"/>
</svg>
